<svg xmlns="http://www.w3.org/2000/svg" width="166" height="165" viewBox="0 0 166 165">
    <g fill="#D9D9D9" fill-rule="evenodd">
        <path d="M138.817 50.479l-30.973-22.53a2.56 2.56 0 0 0-3.58.569 2.571 2.571 0 0 0 .568 3.587l30.973 22.53a2.56 2.56 0 0 0 3.58-.57 2.57 2.57 0 0 0-.568-3.586zM62.528 38.155a2.563 2.563 0 0 0-2.933-2.134l-37.804 6.01a2.567 2.567 0 0 0-2.13 2.939 2.565 2.565 0 0 0 2.934 2.133l37.803-6.01a2.566 2.566 0 0 0 2.13-2.938z"/>
        <path d="M164.942 42.404L107.421.562a2.565 2.565 0 0 0-3.58.57l-25.086 34.61-3.454-21.804a2.56 2.56 0 0 0-2.933-2.134L2.162 22.966a2.567 2.567 0 0 0-2.13 2.938l13.712 86.564a2.559 2.559 0 0 0 2.933 2.134l16.132-2.565v27.552a2.566 2.566 0 0 0 2.563 2.568h71.085a2.566 2.566 0 0 0 2.564-2.568v-7.241a32.626 32.626 0 0 0 4.961-3.501l6.387 6.398-2.054 2.058c-1 1.003-1 2.629 0 3.632l23.2 23.24c.5.502 1.156.753 1.812.753.656 0 1.312-.25 1.813-.752l7.733-7.748a2.57 2.57 0 0 0 0-3.63l-23.2-23.242a2.561 2.561 0 0 0-3.625 0l-2.054 2.058-6.387-6.398c5.059-5.916 7.818-13.362 7.818-21.234 0-.842-.035-1.695-.101-2.547L165.51 45.99a2.57 2.57 0 0 0-.568-3.586zm-37.081 92.6l19.574 19.61-4.108 4.115-19.574-19.61 4.108-4.115zM32.809 51.94v10.524l-7.59 1.207a2.567 2.567 0 0 0-2.13 2.938 2.565 2.565 0 0 0 2.934 2.134l6.786-1.079v16.986l-4.162.662a2.567 2.567 0 0 0-2.13 2.938 2.565 2.565 0 0 0 2.933 2.134l3.359-.534v16.987l-14.404 2.29L5.497 27.634 70.64 17.28l3.855 24.34-5.62 7.754H35.371a2.566 2.566 0 0 0-2.563 2.568zm71.085 85.08H37.935V54.51H103.894V73.23a32.274 32.274 0 0 0-11.107-1.945c-.717 0-1.43.026-2.139.073a2.571 2.571 0 0 0-.595-.073H51.776a2.566 2.566 0 0 0-2.563 2.568 2.566 2.566 0 0 0 2.563 2.568h23.447a32.747 32.747 0 0 0-7.454 6.565 32.41 32.41 0 0 0-5.795 10.211H51.776a2.566 2.566 0 0 0-2.563 2.568 2.566 2.566 0 0 0 2.563 2.568h8.863a32.838 32.838 0 0 0-.49 5.65c0 3.853.653 7.58 1.939 11.126H51.777a2.566 2.566 0 0 0-2.564 2.568 2.566 2.566 0 0 0 2.564 2.568h12.695c5.82 10.175 16.526 16.434 28.316 16.434 3.846 0 7.566-.653 11.107-1.942v2.283zm8.347-13.55h-.001a27.548 27.548 0 0 1-6.95 5.068 27.172 27.172 0 0 1-12.503 3.004c-10.387 0-19.78-5.761-24.513-15.035v-.002c-1.99-3.898-2.998-8.112-2.998-12.524 0-2.545.35-5.074 1.04-7.517a27.34 27.34 0 0 1 5.382-10.179 27.443 27.443 0 0 1 21.09-9.865c4.399 0 8.606 1.012 12.503 3.009 8.298 4.251 13.848 12.308 14.845 21.553v.006c.108.998.163 2.005.163 2.993 0 7.362-2.862 14.283-8.058 19.489zm11.786-28.987c-2.387-7.922-7.71-14.674-15.007-18.864V62.23l13.934 10.135a2.56 2.56 0 0 0 3.58-.57 2.571 2.571 0 0 0-.568-3.585L109.02 55.884v-3.942a2.566 2.566 0 0 0-2.564-2.568h-6.386l-5.078-3.694a2.56 2.56 0 0 0-3.58.569 2.57 2.57 0 0 0 .085 3.125H75.21l4.057-5.598v-.001l27.216-37.548 53.373 38.824-35.829 49.433z"/>
        <path d="M92.787 82.242c-11.966 0-21.701 9.753-21.701 21.74 0 11.988 9.735 21.741 21.701 21.741 11.966 0 21.702-9.753 21.702-21.74 0-11.989-9.736-21.741-21.702-21.741zm0 38.345c-9.14 0-16.575-7.449-16.575-16.605s7.436-16.604 16.575-16.604c9.14 0 16.575 7.449 16.575 16.604 0 9.156-7.435 16.605-16.575 16.605z"/>
        <path d="M100.068 103.536a2.56 2.56 0 0 0-3.626 0l-6.835 6.848c-1 1.002-1 2.628 0 3.631.5.501 1.157.752 1.813.752.656 0 1.312-.25 1.813-.752l6.835-6.847a2.57 2.57 0 0 0 0-3.632zM97.334 92.58a2.56 2.56 0 0 0-3.625 0l-7.519 7.532c-1 1.003-1 2.63 0 3.632.5.5 1.157.752 1.813.752.656 0 1.312-.25 1.812-.752l7.519-7.532a2.57 2.57 0 0 0 0-3.632z"/>
    </g>
</svg>
